<svg width="31" height="32" viewBox="0 0 31 32" fill="none" xmlns="http://www.w3.org/2000/svg">
<path d="M26.0477 3.87191H22.9888V2.34245C22.9888 1.93681 22.8277 1.54779 22.5408 1.26096C22.254 0.974128 21.865 0.812988 21.4593 0.812988C21.0537 0.812988 20.6647 0.974128 20.3779 1.26096C20.091 1.54779 19.9299 1.93681 19.9299 2.34245V3.87191H10.7531V2.34245C10.7531 1.93681 10.592 1.54779 10.3051 1.26096C10.0183 0.974128 9.62929 0.812988 9.22365 0.812988C8.81801 0.812988 8.42899 0.974128 8.14216 1.26096C7.85533 1.54779 7.69419 1.93681 7.69419 2.34245V3.87191H4.63526C3.41835 3.87191 2.25127 4.35533 1.39078 5.21582C0.530293 6.07631 0.046875 7.24338 0.046875 8.4603V26.8138C0.046875 28.0308 0.530293 29.1978 1.39078 30.0583C2.25127 30.9188 3.41835 31.4022 4.63526 31.4022H26.0477C27.2647 31.4022 28.4317 30.9188 29.2922 30.0583C30.1527 29.1978 30.6361 28.0308 30.6361 26.8138V8.4603C30.6361 7.24338 30.1527 6.07631 29.2922 5.21582C28.4317 4.35533 27.2647 3.87191 26.0477 3.87191ZM27.5772 26.8138C27.5772 27.2195 27.4161 27.6085 27.1292 27.8953C26.8424 28.1822 26.4534 28.3433 26.0477 28.3433H4.63526C4.22962 28.3433 3.8406 28.1822 3.55377 27.8953C3.26694 27.6085 3.1058 27.2195 3.1058 26.8138V16.1076H27.5772V26.8138ZM27.5772 13.0487H3.1058V8.4603C3.1058 8.05466 3.26694 7.66564 3.55377 7.37881C3.8406 7.09198 4.22962 6.93084 4.63526 6.93084H7.69419V8.4603C7.69419 8.86594 7.85533 9.25496 8.14216 9.54179C8.42899 9.82862 8.81801 9.98976 9.22365 9.98976C9.62929 9.98976 10.0183 9.82862 10.3051 9.54179C10.592 9.25496 10.7531 8.86594 10.7531 8.4603V6.93084H19.9299V8.4603C19.9299 8.86594 20.091 9.25496 20.3779 9.54179C20.6647 9.82862 21.0537 9.98976 21.4593 9.98976C21.865 9.98976 22.254 9.82862 22.5408 9.54179C22.8277 9.25496 22.9888 8.86594 22.9888 8.4603V6.93084H26.0477C26.4534 6.93084 26.8424 7.09198 27.1292 7.37881C27.4161 7.66564 27.5772 8.05466 27.5772 8.4603V13.0487Z" fill="black"/>
</svg>
